<svg xmlns="http://www.w3.org/2000/svg" xmlns:xlink="http://www.w3.org/1999/xlink" width="40" height="40" viewBox="0 0 40 40">
    <defs>
        <linearGradient id="b" x1="0%" y1="0%" y2="100%">
            <stop offset="0%" stop-color="#F85CAA"/>
            <stop offset="100%" stop-color="#F03479"/>
        </linearGradient>
        <circle id="a" cx="20" cy="20" r="20"/>
        <linearGradient id="d" x1="50%" x2="51.062%" y1="23.068%" y2="68.963%">
            <stop offset="0%" stop-color="#FFF" stop-opacity=".7"/>
            <stop offset="100%" stop-color="#FFF"/>
        </linearGradient>
        <linearGradient id="e" x1="50%" x2="54.595%" y1="44.495%" y2="53.876%">
            <stop offset="0%" stop-color="#FFF" stop-opacity=".7"/>
            <stop offset="100%" stop-color="#FFF"/>
        </linearGradient>
        <linearGradient id="f" x1="50%" x2="51.814%" y1="23.068%" y2="68.963%">
            <stop offset="0%" stop-color="#FFF" stop-opacity=".7"/>
            <stop offset="100%" stop-color="#FFF"/>
        </linearGradient>
        <linearGradient id="g" x1="50%" x2="54.595%" y1="32.947%" y2="62.007%">
            <stop offset="0%" stop-color="#FFF" stop-opacity=".7"/>
            <stop offset="100%" stop-color="#FFF"/>
        </linearGradient>
        <linearGradient id="h" x1="41.918%" x2="62.936%" y1="17.784%" y2="94.613%">
            <stop offset="0%" stop-color="#FFF" stop-opacity=".7"/>
            <stop offset="100%" stop-color="#FFF"/>
        </linearGradient>
    </defs>
    <g fill="none" fill-rule="evenodd">
        <mask id="c" fill="#fff">
            <use xlink:href="#a"/>
        </mask>
        <use fill="url(#b)" xlink:href="#a"/>
        <g mask="url(#c)">
            <g opacity=".987">
                <path fill="url(#d)" d="M14.483.686c.761 0 1.38.614 1.38 1.372v28.81c0 .759-.619 1.373-1.38 1.373H2.069c-.762 0-1.38-.614-1.38-1.372V2.058C.69 1.3 1.308.686 2.07.686h12.414zM6.207 23.323H3.448c-.38 0-.69.307-.69.686 0 .379.31.686.69.686h2.759c.38 0 .69-.307.69-.686a.688.688 0 0 0-.69-.686zm2.759-2.744H3.448c-.38 0-.69.307-.69.686 0 .38.31.686.69.686h5.518c.38 0 .69-.307.69-.686a.688.688 0 0 0-.69-.686zm0-2.744H4.828c-.381 0-.69.308-.69.686 0 .38.309.686.69.686h4.138c.38 0 .69-.307.69-.686a.688.688 0 0 0-.69-.686z" transform="translate(6.667 8.333)"/>
                <path fill="url(#e)" d="M15.862 7.546v6.86H.69v-6.86h15.172zM5.517 10.29H3.448c-.38 0-.69.307-.69.686 0 .378.31.686.69.686h2.07c.38 0 .689-.308.689-.686a.688.688 0 0 0-.69-.686zm2.759 0c-.381 0-.69.307-.69.686 0 .378.309.686.69.686.38 0 .69-.308.69-.686a.688.688 0 0 0-.69-.686z" transform="translate(6.667 8.333)"/>
            </g>
            <path fill="url(#f)" d="M8.506.229c.761 0 1.38.614 1.38 1.372v9.603H2.988V1.601c0-.758.617-1.372 1.379-1.372h4.138zm-2.07 2.058c-.38 0-.689.307-.689.686 0 .378.309.686.69.686.38 0 .69-.308.69-.686a.688.688 0 0 0-.69-.686z" opacity=".987" transform="translate(20.46 11.992)"/>
            <path fill="url(#g)" d="M2.989 11.204h6.896V5.716H2.99z" opacity=".987" transform="translate(20.46 11.992)"/>
            <path fill="url(#h)" d="M11.264 11.204H1.61c-.762 0-1.38.615-1.38 1.372v19.021c0 .86.699 1.558 1.56 1.558h9.475c.762 0 1.38-.614 1.38-1.371V12.576c0-.757-.618-1.372-1.38-1.372z" opacity=".987" transform="translate(20.46 11.992)"/>
            <path fill="#FFF" d="M33.103 27.312V39.66H20.69V27.312h12.413zm-2.758 8.918h-3.448c-.381 0-.69.307-.69.686 0 .378.309.686.69.686h3.448c.38 0 .69-.308.69-.686a.688.688 0 0 0-.69-.686zm-.539-5.917l-1.53 1.903v-1.474a.686.686 0 0 0-.426-.634.692.692 0 0 0-.751.149l-1.38 1.372a.683.683 0 0 0 .009.961.692.692 0 0 0 .966.009l.203-.201v1.774c0 .013.006.023.007.036a.614.614 0 0 0 .028.137c.01.04.022.08.038.119.02.036.043.07.069.103a.71.71 0 0 0 .091.109c.01.009.015.02.024.029.033.021.068.04.104.057.026.016.052.03.08.044a.7.7 0 0 0 .248.052.692.692 0 0 0 .282-.063.813.813 0 0 0 .061-.04.69.69 0 0 0 .17-.133c.006-.01.018-.013.026-.022l1.53-1.902v1.474c0 .379.309.686.69.686.38 0 .69-.307.69-.686v-3.43a.691.691 0 0 0-1.228-.429z"/>
        </g>
    </g>
</svg>
